# xmcd CD database file generated by Grip 2.7
#
# Track frame offsets:
#       150
#       24025
#       47363
#       76523
#       91785
#       105998
#       122675
#       147250
#       162328
#       180918
#       201323
#       217533
#       231728
#
# Disc length: 3339 seconds
#
# Submitted via: Grip 2.7
#
# Revision: 1
# Processed by: cddbd v1.4b41PL1 Copyright (c) Steve Scherf et al.
#
DISCID=900d090d
DTITLE=Larry Hutcherson - Some Get Lucky
DYEAR=1900
DGENRE=
TTITLE0=Some Get Lucky
TTITLE1=You Don't Know
TTITLE2=Elvis To Ya
TTITLE3=Wistful
TTITLE4=Let Me Down
TTITLE5=Pain Is My Game
TTITLE6=Out Of My Mind
TTITLE7=Mr. Nate
TTITLE8=Foolin' Myself
TTITLE9=Dee's Song
TTITLE10=Real Woman
TTITLE11=Chris
TTITLE12=Play On
EXTD=
EXTT0=
EXTT1=
EXTT2=
EXTT3=
EXTT4=
EXTT5=
EXTT6=
EXTT7=
EXTT8=
EXTT9=
EXTT10=
EXTT11=
EXTT12=
PLAYORDER=
